<svg width="139" height="24" viewBox="0 0 139 24" fill="none" xmlns="http://www.w3.org/2000/svg">
<path d="M138.597 0.5H136.335V23.5H138.597V0.5Z" fill="#2762F8"/>
<path d="M101.806 3.23455H104.821V20.4846H101.806V3.23455Z" fill="#1E2227"/>
<path d="M2.73475 17.0142C3.17301 16.5934 3.38339 16.0325 3.38339 15.3312V3.51569H6.50382V15.2261C6.50382 16.2779 6.29344 17.1895 5.83766 17.9783C5.39939 18.7672 4.75076 19.3808 3.92683 19.819C3.10289 20.2748 2.12119 20.4852 0.999241 20.4852H0V17.6453H0.999241C1.71799 17.6453 2.29649 17.4349 2.73475 17.0142Z" fill="#1E2227"/>
<path d="M16.6796 16.7862C16.8899 16.383 16.9951 15.9097 16.9951 15.3662H16.9601V8.09105H19.9403V20.4851H17.1178V18.8723C16.8198 19.4158 16.4517 19.8891 15.9258 20.1871C15.2771 20.5728 14.5058 20.7656 13.6293 20.7656C12.6651 20.7656 11.8236 20.5552 11.1224 20.1345C10.4212 19.7138 9.87776 19.1177 9.50962 18.3639C9.14147 17.6101 8.94864 16.7161 8.94864 15.6993V8.10858H11.9639V15.4539C11.9639 15.9622 12.0691 16.418 12.2794 16.8037C12.4898 17.1894 12.7878 17.4874 13.1735 17.7153C13.5592 17.9432 13.9974 18.0484 14.4883 18.0484C14.9791 18.0484 15.3999 17.9257 15.7855 17.7153C16.1712 17.4874 16.4692 17.1894 16.6796 16.7862Z" fill="#1E2227"/>
<path d="M26.9346 10.2825C27.5657 10.2825 28.1266 10.4402 28.6175 10.7733C29.1259 11.1064 29.4765 11.5447 29.6869 12.1056L31.9658 11.0363C31.5802 10.0195 30.9491 9.23062 30.055 8.66965C29.1609 8.10868 28.1266 7.82819 26.9521 7.82819C26.0581 7.82819 25.2692 7.98596 24.568 8.30151C23.8843 8.61706 23.3408 9.07285 22.9552 9.63383C22.5695 10.2123 22.3766 10.861 22.3766 11.6323C22.3766 12.4913 22.6396 13.2276 23.183 13.8587C23.7265 14.4898 24.5154 14.9456 25.5497 15.2436L27.5832 15.8221C27.8637 15.8922 28.0916 15.9974 28.3195 16.1026C28.5298 16.2253 28.7052 16.348 28.8279 16.5058C28.9506 16.6636 29.0207 16.8739 29.0207 17.1018C29.0207 17.505 28.8629 17.8206 28.5474 18.066C28.2318 18.3114 27.8111 18.4341 27.2677 18.4341C26.5664 18.4341 25.9353 18.2413 25.3568 17.8381C24.7959 17.4349 24.3401 16.8915 24.0245 16.1902L21.7631 17.2596C22.1487 18.3465 22.8149 19.1879 23.7966 19.819C24.7783 20.4501 25.9353 20.7657 27.2501 20.7657C28.1968 20.7657 29.0207 20.6079 29.7044 20.2924C30.4056 19.9768 30.9491 19.521 31.3523 18.96C31.7555 18.3815 31.9483 17.7329 31.9483 16.9966C31.9483 16.1201 31.6678 15.3663 31.1244 14.7703C30.5809 14.1742 29.7745 13.7009 28.7577 13.4029L26.7768 12.8068C26.4963 12.7192 26.2334 12.614 26.0055 12.5088C25.7776 12.4036 25.6198 12.2634 25.4971 12.1056C25.3744 11.9479 25.3218 11.755 25.3218 11.5271C25.3218 11.1415 25.462 10.8434 25.76 10.6331C26.0405 10.4227 26.4437 10.3 26.9521 10.3L26.9346 10.2825Z" fill="#1E2227"/>
<path d="M43.1682 3.51569H46.1841V6.70693H43.1682V3.51569Z" fill="#1E2227"/>
<path d="M57.4462 8.40596C56.745 8.00276 55.9386 7.80992 55.027 7.80992C54.1154 7.80992 53.3791 8.00275 52.713 8.38842C52.187 8.70397 51.8014 9.15976 51.5209 9.70321V8.09041H48.6985V20.4845H51.7137V13.2093C51.7137 12.6659 51.8189 12.1925 52.0293 11.7893C52.2396 11.4037 52.5377 11.0881 52.9233 10.8778C53.309 10.6674 53.7297 10.5622 54.2206 10.5622C54.7114 10.5622 55.1322 10.6674 55.5178 10.8778C55.9035 11.0881 56.2015 11.3861 56.4119 11.7893C56.6222 12.1925 56.7274 12.6483 56.7274 13.2093V20.4845H59.7076V12.5081C59.7076 11.579 59.5148 10.7726 59.1116 10.0538C58.7084 9.3526 58.1649 8.79162 57.4637 8.40596H57.4462Z" fill="#1E2227"/>
<path d="M77.6768 3.51569L80.9375 16.2604L84.093 3.51569H87.4237L82.8658 20.4852H79.3071L76.0465 8.30152L72.7858 20.4852H69.2446L64.6867 3.51569H68L71.1555 16.2604L74.4337 3.51569H77.6768Z" fill="#1E2227"/>
<path fill-rule="evenodd" clip-rule="evenodd" d="M98.2071 9.6163C97.6987 9.05532 97.0676 8.61706 96.3314 8.30151C95.5951 7.98596 94.7361 7.82819 93.7719 7.82819C92.5974 7.82819 91.5455 8.10868 90.634 8.66965C89.7048 9.23062 88.9685 10.002 88.4251 10.9661C87.8817 11.9303 87.6012 13.0347 87.6012 14.2794C87.6012 15.5241 87.8641 16.5759 88.4076 17.5576C88.9335 18.5393 89.6873 19.3282 90.6515 19.9067C91.6157 20.4852 92.7376 20.7657 94.0173 20.7657C94.8588 20.7657 95.6302 20.643 96.3489 20.38C97.0676 20.1171 97.6812 19.7664 98.1896 19.3107C98.698 18.8549 99.0837 18.3289 99.3291 17.7329L96.9099 16.5408C96.6294 17.0317 96.2612 17.4174 95.7879 17.6979C95.3146 17.9959 94.7361 18.1361 94.0524 18.1361C93.3687 18.1361 92.7727 17.9783 92.2468 17.6628C91.7208 17.3472 91.3352 16.8915 91.0547 16.313C90.8969 15.9623 90.8093 15.5767 90.7742 15.1559H99.6797C99.7323 14.9806 99.7849 14.7703 99.8024 14.5599C99.8199 14.3495 99.8375 14.1216 99.8375 13.8937C99.8375 13.0523 99.6972 12.2809 99.4343 11.5622C99.1538 10.8434 98.7681 10.1948 98.2422 9.63383L98.2071 9.6163ZM92.1065 10.7558C92.5974 10.4402 93.1408 10.2825 93.7719 10.2825C94.403 10.2825 94.9815 10.4402 95.4548 10.7558C95.9106 11.0713 96.2612 11.5096 96.4541 12.053C96.5417 12.2985 96.5943 12.5789 96.6118 12.8594H90.8093C90.8619 12.5965 90.9144 12.3511 91.0021 12.1232C91.2475 11.5271 91.6157 11.0713 92.1065 10.7558Z" fill="#1E2227"/>
<path d="M113.421 10.7733C112.93 10.4402 112.369 10.2825 111.738 10.2825L111.755 10.3C111.247 10.3 110.844 10.4227 110.563 10.6331C110.265 10.8434 110.125 11.1415 110.125 11.5271C110.125 11.755 110.178 11.9479 110.3 12.1056C110.423 12.2634 110.581 12.4036 110.809 12.5088C111.037 12.614 111.3 12.7192 111.58 12.8068L113.561 13.4029C114.578 13.7009 115.384 14.1742 115.928 14.7703C116.471 15.3663 116.752 16.1201 116.752 16.9966C116.752 17.7329 116.559 18.3815 116.155 18.96C115.752 19.521 115.209 19.9768 114.508 20.2924C113.824 20.6079 113 20.7657 112.053 20.7657C110.739 20.7657 109.582 20.4501 108.6 19.819C107.618 19.1879 106.952 18.3465 106.566 17.2596L108.828 16.1902C109.143 16.8915 109.599 17.4349 110.16 17.8381C110.739 18.2413 111.37 18.4341 112.071 18.4341C112.614 18.4341 113.035 18.3114 113.351 18.066C113.666 17.8206 113.824 17.505 113.824 17.1018C113.824 16.8739 113.754 16.6636 113.631 16.5058C113.508 16.348 113.333 16.2253 113.123 16.1026C112.895 15.9974 112.667 15.8922 112.386 15.8221L110.353 15.2436C109.319 14.9456 108.53 14.4898 107.986 13.8587C107.443 13.2276 107.18 12.4913 107.18 11.6323C107.18 10.861 107.373 10.2123 107.758 9.63383C108.144 9.07285 108.688 8.61706 109.371 8.30151C110.072 7.98596 110.861 7.82819 111.755 7.82819C112.93 7.82819 113.964 8.10868 114.858 8.66965C115.752 9.23062 116.383 10.0195 116.769 11.0363L114.49 12.1056C114.28 11.5447 113.929 11.1064 113.421 10.7733Z" fill="#1E2227"/>
<path d="M127.579 8.40605C126.878 8.00285 126.072 7.81001 125.16 7.81001C124.248 7.81001 123.512 8.00285 122.846 8.38852C122.425 8.63394 122.11 8.98455 121.829 9.38776V3.23455H118.814V20.4846H121.829V13.2094C121.829 12.666 121.934 12.1926 122.145 11.7894C122.355 11.4038 122.653 11.0882 123.039 10.8778C123.425 10.6675 123.845 10.5623 124.336 10.5623C124.827 10.5623 125.283 10.6675 125.651 10.8778C126.019 11.0882 126.317 11.3862 126.527 11.7894C126.738 12.1926 126.843 12.6484 126.843 13.2094V20.4846H129.823V12.5082C129.823 11.5791 129.63 10.7727 129.227 10.0539C128.824 9.35269 128.28 8.79172 127.579 8.40605Z" fill="#1E2227"/>
<path d="M38.2524 5.2685V8.09091L38.2874 8.07338H46.2112V20.4674H43.196V10.738H38.2699V16.0498C38.2699 16.4705 38.34 16.8211 38.4803 17.1016C38.6205 17.3996 38.8484 17.61 39.1639 17.7677C39.462 17.9255 39.8652 17.9956 40.356 17.9956C40.4048 17.9956 40.4574 17.9919 40.5138 17.9878C40.5789 17.9831 40.649 17.9781 40.7241 17.9781C40.7709 17.9723 40.8177 17.9645 40.8645 17.9567C40.9579 17.9411 41.0514 17.9255 41.1449 17.9255V20.485C41.0089 20.5059 40.873 20.5206 40.7259 20.5364C40.6264 20.5472 40.5218 20.5585 40.4086 20.5726C40.1281 20.6252 39.8827 20.6252 39.6548 20.6252C38.2524 20.6252 37.1655 20.2395 36.3941 19.4682C35.6228 18.7144 35.2371 17.6275 35.2371 16.2251V10.7555H33.1159V8.09091H33.3438C33.9574 8.09091 34.4132 7.93314 34.7463 7.61759C35.0793 7.30204 35.2371 6.84625 35.2371 6.23268V5.2685H38.2524Z" fill="#1E2227"/>
</svg>
