<svg width="256" height="256" viewBox="0 0 256 256" fill="none" xmlns="http://www.w3.org/2000/svg">
<rect width="256" height="256" rx="20" fill="white"/>
<path d="M223 72H211.983V184H223V72Z" fill="#2762F8"/>
<path d="M46.3232 152.416C48.4583 150.367 49.4832 147.635 49.4832 144.22V86.6838H64.6853V143.708C64.6853 148.83 63.6604 153.269 61.4399 157.111C59.3047 160.952 56.1447 163.94 52.1307 166.074C48.1167 168.294 43.334 169.318 37.8681 169.318H33V155.489H37.8681C41.3697 155.489 44.188 154.464 46.3232 152.416Z" fill="#1E2227"/>
<path d="M145.003 86.6838L160.888 148.745L176.261 86.6838H192.488L170.283 169.318H152.946L137.06 109.989L121.175 169.318H103.923L81.718 86.6838H97.8595L113.232 148.745L129.203 86.6838H145.003Z" fill="#1E2227"/>
</svg>
