<svg width="32" height="32" viewBox="0 0 32 32" fill="none" xmlns="http://www.w3.org/2000/svg">
<rect width="32" height="32" rx="2" fill="white"/>
<path d="M26.875 9H25.4978V23H26.875V9Z" fill="#2762F8"/>
<path d="M4.79039 19.0519C5.05728 18.7958 5.1854 18.4544 5.1854 18.0275V10.8355H7.08566V17.9635C7.08566 18.6038 6.95755 19.1586 6.67998 19.6388C6.41309 20.119 6.01809 20.4925 5.51634 20.7593C5.01458 21.0367 4.41675 21.1647 3.73351 21.1647H3.125V19.4361H3.73351C4.17121 19.4361 4.5235 19.308 4.79039 19.0519Z" fill="#1E2227"/>
<path d="M17.1254 10.8355L19.111 18.5931L21.0327 10.8355H23.061L20.2854 21.1647H18.1182L16.1325 13.7486L14.1469 21.1647H11.9904L9.21474 10.8355H11.2324L13.154 18.5931L15.1504 10.8355H17.1254Z" fill="#1E2227"/>
</svg>
