<svg width="136" height="50" viewBox="0 0 136 50" fill="none" xmlns="http://www.w3.org/2000/svg">
<path d="M74.6157 19.7742C74.6157 16.6594 74.6692 13.7594 74.8297 11.0742L66.6442 12.6316V13.3835L67.4467 13.4909C68.0352 13.5446 68.4097 13.7594 68.6237 14.0816C68.8377 14.4576 68.9982 14.9946 69.1052 15.8001C69.2122 17.3576 69.3192 20.902 69.2657 26.4872C69.2657 32.0187 69.2122 35.5094 69.1052 36.852C72.0477 37.4964 74.3482 37.765 76.0602 37.765C79.2702 37.765 81.7847 36.852 83.6037 34.9724C85.4227 33.1464 86.3857 30.5687 86.3857 27.4001C86.3857 24.8761 85.6902 22.7816 84.2992 21.1168C82.9082 19.452 81.1427 18.6464 79.0562 18.6464C77.6652 18.6464 76.2207 19.0224 74.6157 19.7742ZM74.7762 36.315C74.6692 34.5964 74.5622 29.4409 74.5622 21.0094C75.0437 20.8483 75.6857 20.7409 76.4882 20.7409C77.7722 20.7409 78.7887 21.3853 79.5377 22.7279C80.2867 24.0705 80.6612 25.6816 80.6612 27.7224C80.6612 30.2464 80.2332 32.2872 79.3772 34.0057C78.5212 35.6705 77.4512 36.5298 76.1137 36.5298C75.6857 36.4224 75.2577 36.3687 74.7762 36.315ZM35.9352 11.6113H14.5352V12.6853L15.6587 12.7927C16.5147 12.9538 17.1032 13.2761 17.4777 13.7594C17.8522 14.2964 18.0662 15.1557 18.1197 16.3372C18.5477 22.1372 18.5477 27.5613 18.1197 32.5557C18.0127 33.7372 17.7987 34.5964 17.4777 35.1335C17.1032 35.6705 16.5147 35.9927 15.6587 36.1001L14.5352 36.2613V37.3353H28.3382V36.2613L26.8937 36.1538C26.0377 36.0464 25.4492 35.6705 25.0747 35.1872C24.7002 34.6501 24.4862 33.7909 24.4327 32.6094C24.2722 30.4613 24.1652 27.9909 24.1652 25.252L27.0542 25.3057C28.6057 25.3594 29.6757 26.5409 30.2107 28.9038H31.2807V20.1501H30.2107C29.6757 22.4594 28.6592 23.6409 27.0542 23.6946L24.1652 23.7483C24.1652 18.915 24.2722 15.4779 24.4327 13.3835H28.6592C31.6552 13.3835 33.6882 15.3168 34.8652 19.1835L36.1492 18.8076L35.9352 11.6113ZM33.4207 28.152C33.4207 30.9446 34.2232 33.2538 35.7747 35.0798C37.3262 36.9057 39.6267 37.765 42.5157 37.765C45.4047 37.765 47.7587 36.852 49.4707 34.9724C51.1827 33.1464 51.9852 30.8372 51.9852 28.0446C51.9852 25.252 51.1827 22.9427 49.6312 21.1168C48.0797 19.2909 45.7792 18.4316 42.8902 18.4316C40.0012 18.4316 37.6472 19.3446 35.9352 21.2242C34.2232 23.0501 33.4207 25.3594 33.4207 28.152ZM45.3512 22.0298C45.9932 23.5872 46.2607 25.6279 46.2607 28.0983C46.2607 33.7909 45.0837 36.5835 42.7832 36.5835C41.6062 36.5835 40.6967 35.7779 40.0547 34.1668C39.4127 32.5557 39.1452 30.515 39.1452 28.0983C39.1452 22.4594 40.3222 19.6668 42.6227 19.6668C43.7997 19.6131 44.7092 20.4187 45.3512 22.0298ZM90.5587 35.0798C92.3242 36.852 94.5712 37.765 97.2462 37.765C98.9047 37.765 100.349 37.4427 101.633 36.7446C102.917 36.1001 103.934 35.2946 104.629 34.3279L104.094 33.6835C102.917 34.5964 101.58 35.0261 100.028 35.0261C97.8882 35.0261 96.2297 34.3279 95.1062 32.8779C93.9292 31.4279 93.3942 29.602 93.5012 27.239H104.95C104.95 24.6613 104.308 22.5668 102.971 20.902C101.633 19.2909 99.7607 18.4853 97.3532 18.4853C94.3572 18.4853 92.0567 19.452 90.3982 21.3316C88.7397 23.2113 87.9372 25.5205 87.9372 28.2594C87.9372 31.052 88.7932 33.3076 90.5587 35.0798ZM94.5177 21.6001C95.1062 20.3113 95.8552 19.6668 96.8717 19.6668C98.4767 19.6668 99.2792 21.7076 99.2792 25.8427L93.6082 25.9501C93.6617 24.339 93.9292 22.889 94.5177 21.6001ZM119.342 19.452C117.897 18.8076 116.078 18.4316 113.885 18.4316C111.638 18.4316 109.872 19.0224 108.535 20.1501C107.197 21.2779 106.502 22.6742 106.502 24.339C106.502 25.789 106.93 26.9168 107.732 27.7224C108.535 28.5279 109.819 29.2261 111.477 29.8168C112.975 30.3538 114.045 30.8909 114.58 31.3742C115.115 31.9113 115.436 32.502 115.436 33.3076C115.436 34.0594 115.169 34.7576 114.58 35.2946C114.045 35.8853 113.296 36.1538 112.333 36.1538C109.979 36.1538 108.214 34.4353 106.983 30.9983L106.074 31.2668L106.288 36.6372C108.214 37.389 110.354 37.765 112.708 37.765C115.169 37.765 117.041 37.2279 118.432 36.1001C119.823 35.0261 120.519 33.4687 120.519 31.5353C120.519 30.2464 120.198 29.1724 119.502 28.3668C118.807 27.5613 117.683 26.8631 116.078 26.2187C114.313 25.5742 113.082 24.9835 112.44 24.4464C111.798 23.9094 111.477 23.265 111.477 22.4594C111.477 21.6538 111.691 21.0094 112.173 20.4724C112.654 19.9353 113.243 19.7205 113.992 19.7205C116.132 19.7205 117.683 21.2779 118.646 24.339L119.556 24.0705L119.342 19.452ZM67.8747 18.9687C67.1257 18.5927 66.3232 18.4316 65.4137 18.4316C64.5042 18.4316 63.5947 18.8076 62.5782 19.5594C61.5617 20.3113 60.8127 21.3316 60.2242 22.7279L60.2777 18.4316L52.1457 20.0427V20.7946L52.9482 20.8483C53.9647 20.9557 54.5532 21.7613 54.6602 23.2113C54.9812 26.5409 54.9812 30.0853 54.6602 33.8446C54.5532 35.2946 53.9647 36.0464 52.9482 36.2076L52.1457 36.315V37.3353H63.4877V36.315L62.0432 36.2076C61.0267 36.1001 60.4382 35.2946 60.3312 33.8446C60.0102 30.7298 59.9567 27.4001 60.2242 23.9631C60.5452 23.4261 61.2407 23.1038 62.3107 22.9964C63.3807 22.889 64.6112 23.2113 65.8952 23.9631L67.8747 18.9687Z" fill="black"/>
</svg>
