<svg width="136" height="50" viewBox="0 0 136 50" fill="none" xmlns="http://www.w3.org/2000/svg">
<g clip-path="url(#clip0_1342_12464)">
<path fill-rule="evenodd" clip-rule="evenodd" d="M19.7591 42H22.3878V28H19.7591V42ZM29.3949 41.79H31.7492V32.9569L41.6592 42V28.21H39.3114V36.8922L29.3949 28V41.79ZM47.0338 38.3994C48.3152 39.3947 49.8533 39.97 51.5023 39.97C53.1084 39.97 54.2351 39.4188 54.2351 38.2014C54.2351 37.1405 53.5165 36.7248 52.2582 36.26L50.2209 35.5545C48.3427 34.8895 46.9143 33.9183 46.9143 31.6859C46.9143 29.2983 49.0766 28 51.6624 28C53.2466 28 54.6904 28.397 55.8182 29.1003V31.4683C54.6454 30.6042 53.3618 30.0092 51.7129 30.0092C50.2933 30.0092 49.2324 30.5375 49.2324 31.6389C49.2324 32.6342 49.8983 33.0323 51.0711 33.4327L53.341 34.2267C55.5407 34.9978 56.55 36.1933 56.55 38.1598C56.55 40.6339 54.3668 42 51.5023 42C49.6197 42 48.019 41.475 47.0338 40.8122V38.3994ZM62.6827 42H65.3102V28H62.6827V42ZM77.6371 39.8814C80.5992 39.8814 82.1823 37.987 82.1823 34.9967C82.1823 31.9845 80.5981 30.0967 77.6371 30.0967H74.7079V39.8814H77.6371ZM72.3162 28H77.7249C81.8883 28 84.5806 30.7344 84.5806 34.9967C84.5806 39.2623 81.8883 42 77.7249 42H72.3162V28ZM97.7215 28V30.0967H91.3617V33.4655H97.0654V35.5381H91.3606V39.8814H97.7215V42H88.9612V28H97.7215ZM107.049 34.3394H109.657C111.2 34.3394 112.07 33.495 112.07 32.1967C112.07 30.8984 111.2 30.053 109.657 30.053H107.049V34.3394ZM107.049 36.3191V42H104.729V28H109.701C112.535 28 114.37 29.4558 114.37 32.1967C114.37 34.5406 113.352 35.887 111.183 36.2327L116.116 42H113.477L108.7 36.3202H107.05L107.049 36.3191ZM18.8409 14.2078C19.8689 13.8327 20.6697 12.7072 20.6697 11.1595C20.6697 8.58047 18.8409 7.24391 15.915 7.24391H11V21.6409H16.3713C19.2973 21.6409 21.1261 20.2103 21.1261 17.5142C21.1261 15.9895 20.1662 14.653 18.8409 14.2078ZM13.3083 13.2934V9.35484H15.893C17.5167 9.35484 18.3845 9.94109 18.3845 11.3006C18.3845 12.6602 17.5156 13.2934 15.893 13.2934H13.3083ZM13.3083 15.3103H16.3253C17.927 15.3103 18.7948 16.1066 18.7948 17.4202C18.7948 18.7097 17.9259 19.5311 16.3264 19.5311H13.3094V15.3092L13.3083 15.3103ZM31.8501 21.875C35.2105 21.875 37.4738 19.8581 37.4738 15.9195V7.24391H35.0964V15.6373C35.0964 18.4045 33.9533 19.6952 31.8501 19.6952C29.747 19.6952 28.605 18.4045 28.605 15.6373V7.24391H26.2276V15.8955C26.2276 19.8581 28.5128 21.875 31.8501 21.875ZM43.0712 20.6084C44.0541 21.3128 45.6548 21.875 47.5286 21.875C50.3865 21.875 52.5577 20.4203 52.5577 17.7953C52.5577 15.7084 51.5527 14.4419 49.3575 13.6216L47.0953 12.7772C45.9291 12.3561 45.2664 11.9339 45.2664 10.8784C45.2664 9.70594 46.3174 9.14375 47.7349 9.14375C49.3805 9.14375 50.6608 9.77594 51.827 10.6914V8.18125C50.7069 7.43203 49.2664 7.00984 47.6888 7.00984C45.1063 7.00984 42.9571 8.39344 42.9571 10.9255C42.9571 13.2934 44.3745 14.3248 46.2483 15.0281L48.2834 15.7784C49.5407 16.2706 50.2494 16.7169 50.2494 17.8423C50.2494 19.1319 49.1293 19.7181 47.5286 19.7181C45.883 19.7181 44.3515 19.1078 43.0712 18.0534V20.6084ZM61.0524 7.24391H58.6761V21.6398H61.0524V7.24391ZM67.8346 21.6223H70.1253V12.2566L79.7665 21.8455V7.22203H77.4824V16.4281L67.8346 7V21.6223ZM94.6222 7.24719V9.40297H88.45V12.868H93.9848V14.9997H88.45V19.4655H94.6222V21.6442H86.1198V7.24719H94.6222ZM100.157 20.5986C101.14 21.303 102.74 21.8652 104.614 21.8652C107.471 21.8652 109.644 20.4116 109.644 17.7855C109.644 15.6986 108.637 14.4331 106.443 13.6117L104.18 12.7684C103.014 12.3463 102.351 11.9241 102.351 10.8686C102.351 9.69609 103.402 9.13391 104.82 9.13391C106.465 9.13391 107.746 9.76719 108.912 10.6816V8.1725C107.792 7.42219 106.351 7 104.774 7C102.191 7 100.042 8.38359 100.042 10.9156C100.042 13.2836 101.459 14.315 103.333 15.0183L105.368 15.7686C106.625 16.2608 107.334 16.707 107.334 17.8325C107.334 19.122 106.215 19.7083 104.613 19.7083C102.968 19.7083 101.436 19.0991 100.157 18.0436V20.5986ZM114.513 20.5986C115.496 21.303 117.097 21.8652 118.971 21.8652C121.829 21.8652 124 20.4116 124 17.7855C124 15.6986 122.994 14.4331 120.8 13.6117L118.537 12.7684C117.371 12.3463 116.708 11.9241 116.708 10.8686C116.708 9.69609 117.76 9.13391 119.176 9.13391C120.822 9.13391 122.103 9.76719 123.268 10.6816V8.1725C122.149 7.42219 120.709 7 119.131 7C116.547 7 114.399 8.38359 114.399 10.9156C114.399 13.2836 115.817 14.315 117.691 15.0183L119.726 15.7686C120.983 16.2608 121.692 16.707 121.692 17.8325C121.692 19.122 120.572 19.7083 118.971 19.7083C117.325 19.7083 115.794 19.0991 114.513 18.0436V20.5986Z" fill="black"/>
</g>
<defs>
<clipPath id="clip0_1342_12464">
<rect width="113" height="35" fill="white" transform="translate(11 7)"/>
</clipPath>
</defs>
</svg>
