<svg width="160" height="50" viewBox="0 0 160 50" fill="none" xmlns="http://www.w3.org/2000/svg">
<g clip-path="url(#clip0_1342_12465)">
<path d="M8.2096 30.0065L10.0174 29.719V13.0654L8 12.8039L8.1048 11H20.7332L20.4188 16.0458L17.9036 15.9673L17.7464 12.8039H13.8426V20.3072H15.5456L15.9386 18.5817L17.694 18.634V23.8105H15.9386L15.5194 22.0327H13.8164V29.9804H17.7464L18.1132 26.5294L20.7594 26.6078L20.969 31.8627H8.131L8.2096 30.0065Z" fill="black"/>
<path d="M22.1494 31.8887L22.228 30.3463L23.6428 30.0587V19.5489L21.9922 19.392V17.8234L26.1318 17.2221L26.4462 18.111V18.7123C27.4418 17.6665 28.647 17.0391 30.1928 17.0391C32.446 17.0391 34.1228 18.3985 34.1228 21.0913V30.0325L35.6162 30.3201L35.5376 31.8626H30.612V21.8757C30.612 20.4378 30.088 19.6273 28.778 19.6273C28.3326 19.6273 28.0182 19.7057 27.6776 19.8364C27.468 20.0195 27.2584 20.2809 27.075 20.5162V30.0848L28.5684 30.3724L28.4636 31.9149H22.1494V31.8887Z" fill="black"/>
<path d="M101.297 31.8887L101.349 30.3463L102.764 30.0587V19.5489L101.113 19.392V17.8234L105.253 17.2221L105.567 18.111V18.7123C106.563 17.6665 107.768 17.0391 109.314 17.0391C111.567 17.0391 113.244 18.3985 113.244 21.0913V30.0325L114.737 30.3201L114.659 31.8626H109.759V21.8757C109.759 20.4378 109.235 19.6273 107.925 19.6273C107.48 19.6273 107.166 19.7057 106.825 19.8364C106.615 20.0195 106.406 20.2809 106.222 20.5162V30.0848L107.716 30.3724L107.611 31.9149H101.297V31.8887Z" fill="black"/>
<path d="M43.4207 31.6017C42.8443 31.837 41.8225 32.0985 40.4863 32.0985C38.7309 32.0985 37.1065 31.3141 37.1065 28.752V19.5494L35.4297 19.288L35.5083 17.4579L37.3947 17.3795L38.2069 14.5821L40.6173 14.4775V17.4841H43.2111L43.0277 19.3141L40.6435 19.5756V28.7782C40.6435 29.5364 41.0627 30.0331 41.8487 30.0331H43.2635L43.4207 31.6017Z" fill="black"/>
<path d="M141.488 31.8891L141.54 30.3728L142.877 30.059V19.5492L141.305 19.3924V17.8237L145.602 17.2224L145.89 18.242V18.5819C147.016 17.7453 148.536 17.1963 150.37 17.1963L150.999 17.7453L150.553 21.7192L148.195 21.6407L147.96 19.5231C147.409 19.6015 146.885 19.7584 146.44 20.0721V30.0852L147.933 30.3989L147.829 31.9152H141.488V31.8891Z" fill="black"/>
<path d="M79.79 31.8891L79.8686 30.3728L81.2048 30.059V19.5492L79.6328 19.3924V17.8237L83.9296 17.2224L84.2178 18.242V18.5819C85.3444 17.7453 86.864 17.1963 88.698 17.1963L89.3268 17.7453L88.829 21.7192L86.471 21.6407L86.2352 19.5231C85.685 19.6015 85.161 19.7584 84.7156 20.0721V30.0852L86.209 30.3989L86.1042 31.9152H79.79V31.8891Z" fill="black"/>
<path d="M44.4697 31.8891L44.5483 30.3728L45.8845 30.059V19.5492L44.3125 19.3924V17.8237L48.6093 17.2224L48.8975 18.242V18.5819C50.0241 17.7453 51.5437 17.1963 53.3515 17.1963L53.9803 17.7453L53.5349 21.7192L51.1769 21.6407L50.9411 19.5231C50.3909 19.6015 49.8669 19.7584 49.4215 20.0721V30.0852L50.9149 30.3989L50.8101 31.9152H44.4697V31.8891Z" fill="black"/>
<path d="M58.0419 25.4833C58.0419 27.9931 59.1423 29.9277 61.3169 29.9277C62.4435 29.9277 63.3343 29.6924 64.3823 29.1957L64.9849 30.5813C63.9107 31.4441 62.3387 32.0977 60.3737 32.0977C56.5485 32.0977 54.3477 28.8035 54.3477 24.5683C54.3477 20.9604 55.9459 17.0127 60.3213 17.0127C64.1465 17.0127 65.5875 20.5421 65.5875 24.4637L65.2207 25.4049L58.0419 25.4833ZM57.9895 23.8101L62.3911 23.6009C62.3125 21.8493 61.9457 19.0781 60.2165 19.0781C59.7973 19.0781 59.5091 19.1565 58.9851 19.4179C58.2777 20.6205 57.9895 22.7905 57.9895 23.8101Z" fill="black"/>
<path d="M118.932 25.4833C118.932 27.9931 120.033 29.9277 122.208 29.9277C123.334 29.9277 124.225 29.6924 125.273 29.1957L125.876 30.5813C124.801 31.4441 123.229 32.0977 121.264 32.0977C117.439 32.0977 115.238 28.8035 115.238 24.5683C115.238 20.9604 116.836 17.0127 121.212 17.0127C125.037 17.0127 126.478 20.5421 126.478 24.4637L126.111 25.4049L118.932 25.4833ZM118.88 23.8101L123.282 23.6009C123.203 21.8493 122.836 19.0781 121.107 19.0781C120.688 19.0781 120.4 19.1565 119.876 19.4179C119.168 20.6205 118.88 22.7905 118.88 23.8101Z" fill="black"/>
<path d="M93.3583 25.4833C93.3583 27.9931 94.4587 29.9277 96.6333 29.9277C97.7599 29.9277 98.6507 29.6924 99.6987 29.1957L100.301 30.5813C99.2271 31.4441 97.6551 32.0977 95.6901 32.0977C91.8649 32.0977 89.6641 28.8035 89.6641 24.5683C89.6641 20.9604 91.2623 17.0127 95.6377 17.0127C99.4629 17.0127 100.904 20.5421 100.904 24.4637L100.537 25.4049L93.3583 25.4833ZM93.3059 23.8101L97.7075 23.6009C97.6289 21.8493 97.2621 19.0781 95.5329 19.0781C95.1137 19.0781 94.8255 19.1565 94.3015 19.4179C93.5941 20.6205 93.2797 22.7905 93.3059 23.8101Z" fill="black"/>
<path d="M136.379 31.8892L136.012 30.6343C135.043 31.5493 134.099 32.0983 132.632 32.0983C130.379 32.0983 128.362 30.9742 128.362 27.863V19.1833L126.711 19.0264V17.6408L131.479 17.0918L131.846 18.3467V27.4447C131.846 29.0395 132.501 29.8761 133.785 29.8761C134.152 29.8761 134.623 29.8238 135.043 29.667C135.278 29.4317 135.514 29.1441 135.698 28.8565V19.1833L133.995 19.0264V17.6408L138.815 17.0918L139.182 18.3467V30.0591L140.676 30.3467L140.492 31.8892H136.379Z" fill="black"/>
<path d="M72.7388 30.0064C71.979 30.0064 71.3763 29.8757 70.9047 29.6142V20.3855C71.1143 20.0717 71.3501 19.7842 71.5859 19.5227C72.0313 19.3659 72.4243 19.3136 72.896 19.3136C74.861 19.3136 75.2016 21.3005 75.2016 24.8561C75.2016 28.2809 74.6776 29.2221 74.5466 29.6142C73.9964 29.8757 73.42 30.0064 72.7388 30.0064ZM78.6076 24.2286C78.6076 19.8103 77.2976 17.0391 74.0226 17.0391C71.8479 17.0391 70.8261 18.294 70.4069 18.8168V18.3201L70.0401 17.0652L65.7695 17.6665V19.1829L67.4201 19.392V37.2221L66.0053 37.5097L65.9267 38.9998H72.2409L72.3458 37.5097L70.8523 37.2221V31.575C71.4549 31.9149 72.2933 32.124 73.2104 32.124C78.5552 32.124 78.6076 26.7123 78.6076 24.2286Z" fill="black"/>
</g>
<defs>
<clipPath id="clip0_1342_12465">
<rect width="143" height="28" fill="white" transform="translate(8 11)"/>
</clipPath>
</defs>
</svg>
