<svg width="20" height="21" viewBox="0 0 20 21" fill="none" xmlns="http://www.w3.org/2000/svg">
<path fill-rule="evenodd" clip-rule="evenodd" d="M10.293 3.53693C10.4805 3.34946 10.7348 3.24414 11 3.24414C11.2652 3.24414 11.5195 3.34946 11.707 3.53693L17.707 9.53693C17.8945 9.72445 17.9998 9.97876 17.9998 10.2439C17.9998 10.5091 17.8945 10.7634 17.707 10.9509L11.707 16.9509C11.5184 17.1331 11.2658 17.2339 11.0036 17.2316C10.7414 17.2293 10.4906 17.1242 10.3052 16.9387C10.1198 16.7533 10.0146 16.5025 10.0123 16.2403C10.01 15.9781 10.1108 15.7255 10.293 15.5369L14.586 11.2439H3C2.73478 11.2439 2.48043 11.1386 2.29289 10.951C2.10536 10.7635 2 10.5091 2 10.2439C2 9.97871 2.10536 9.72436 2.29289 9.53682C2.48043 9.34928 2.73478 9.24393 3 9.24393H14.586L10.293 4.95093C10.1055 4.7634 10.0002 4.50909 10.0002 4.24393C10.0002 3.97876 10.1055 3.72445 10.293 3.53693Z" fill="#2762F8"/>
</svg>
